<svg width="18" height="18" viewBox="0 0 18 18" fill="none" xmlns="http://www.w3.org/2000/svg">
<path d="M9 0C7.21997 0 5.47991 0.527841 3.99987 1.51677C2.51983 2.50571 1.36628 3.91131 0.685088 5.55585C0.00389956 7.20038 -0.17433 9.00998 0.172936 10.7558C0.520203 12.5016 1.37737 14.1053 2.63604 15.364C3.89471 16.6226 5.49836 17.4798 7.24419 17.8271C8.99002 18.1743 10.7996 17.9961 12.4442 17.3149C14.0887 16.6337 15.4943 15.4802 16.4832 14.0001C17.4722 12.5201 18 10.78 18 9C18 6.61305 17.0518 4.32387 15.364 2.63604C13.6761 0.948211 11.387 0 9 0ZM11.7448 14.0068L8.9913 15.825L6.06163 13.8893C6.46835 13.7545 6.53359 13.5 6.52054 13.0846V10.8335C6.68584 10.7835 6.85549 10.7378 7.02514 10.6986L7.11866 10.6791C7.28613 10.6421 7.45578 10.6095 7.62543 10.5812V14.0481L8.9913 14.9594L10.3572 14.0481V10.5834L10.8639 10.6747L11.4621 10.8357V13.0846C11.4512 13.4304 11.4947 13.6631 11.7426 13.811C11.7987 13.8443 11.8586 13.8706 11.921 13.8893L11.7448 14.0068ZM12.9802 13.1933C13.7914 12.617 13.8784 12.0101 13.3847 11.4534C12.8562 10.8487 12.1124 10.5159 11.2663 10.305L10.9618 10.2223L10.8552 10.2006L10.3637 10.1114C10.1005 10.0701 9.83301 10.0353 9.56114 10.0005H9.54374V13.6066L8.9913 13.9785L8.43886 13.6066V10.0179C6.91639 10.2049 5.48309 10.4681 4.61745 11.4577C4.12373 12.021 4.21073 12.6257 5.02199 13.1977C2.75786 11.7057 4.08241 10.0483 6.0899 9.40019C5.8118 9.30669 5.5431 9.18726 5.28734 9.0435C3.29942 7.91904 3.27332 5.95722 5.11334 4.73924L5.50484 4.4826L6.26607 3.97801L7.09908 3.42774L8.11044 4.09763C7.97407 4.13082 7.85203 4.20709 7.76245 4.31513C7.66386 4.48931 7.6249 4.69095 7.65153 4.88932V8.13001C7.48623 8.10609 7.31658 8.07564 7.14476 8.03866L7.05123 8.01691C6.88039 7.97714 6.71193 7.92776 6.54664 7.86902V5.13291L6.39875 5.23079L6.26607 5.31778L6.00725 5.48743C4.86105 6.23997 4.80667 7.41662 5.87241 8.04736C6.3857 8.35403 7.08168 8.50628 7.86032 8.61068L8.43886 8.69985V3.64741C8.45409 3.232 8.38884 2.97752 7.97994 2.84268L8.9913 2.17496L10.0048 2.84268C9.59812 2.97752 9.53287 3.232 9.54592 3.64741V8.69985L10.1375 8.61938C10.9161 8.51498 11.6143 8.36273 12.1254 8.05824C13.1955 7.42097 13.1411 6.24432 12.0036 5.49178L11.7448 5.32648L11.6121 5.23949L11.4642 5.14161V7.87989C11.299 7.93863 11.1305 7.98801 10.9596 8.02779L10.8748 8.04736C10.703 8.08651 10.5334 8.11479 10.3681 8.14089V4.91324C10.3948 4.71417 10.3559 4.51179 10.2571 4.33688C10.1682 4.22584 10.0464 4.14588 9.90914 4.10851L10.9205 3.44079L11.7448 3.99106L12.506 4.49347L12.8975 4.75229C14.7376 5.97027 14.7115 7.93209 12.7235 9.05655C12.4769 9.19448 12.2185 9.31021 11.9514 9.40237C13.9328 10.0549 15.2334 11.7057 12.9802 13.1955" fill="#CECECE"/>
</svg>
