<svg width="96" height="40" viewBox="0 0 96 40" fill="none" xmlns="http://www.w3.org/2000/svg">
<path d="M56.4089 19.4737L60.4507 25.555C61.5702 27.2392 62.4004 28.303 62.9412 28.7464C63.5327 29.2052 64.254 29.4617 65 29.4785V30H56.9355V29.4785C57.3405 29.4906 57.7446 29.434 58.1309 29.311C58.3206 29.2293 58.4847 29.097 58.6053 28.9282C58.7211 28.7772 58.7859 28.5928 58.7903 28.4019C58.7907 28.1806 58.7489 27.9613 58.667 27.756C58.433 27.3278 58.1715 26.9154 57.8843 26.5215L54.6869 21.6459L50.7685 26.7464C50.4878 27.0857 50.237 27.4492 50.019 27.8325C49.9347 28.0103 49.8909 28.2049 49.8909 28.4019C49.8907 28.5466 49.9245 28.6893 49.9897 28.8183C50.0548 28.9472 50.1494 29.0587 50.2657 29.1435C50.7 29.3862 51.1928 29.5022 51.6888 29.4785V30H45V29.4785C45.4207 29.4469 45.8338 29.3484 46.2239 29.1866C46.8105 28.9421 47.3624 28.6203 47.8653 28.2297C48.5262 27.6611 49.1213 27.019 49.6395 26.3158L54.0892 20.6507L50.3795 15.1722C49.3691 13.689 48.5104 12.7129 47.8084 12.2536C47.0814 11.7834 46.2383 11.5281 45.3748 11.5167V11H54.0892V11.5167C53.5575 11.4876 53.0287 11.6138 52.5664 11.8804C52.4467 11.9586 52.3472 12.0646 52.2763 12.1894C52.2053 12.3142 52.1649 12.4543 52.1584 12.5981C52.2423 13.1528 52.4716 13.6748 52.8226 14.11L55.7116 18.4689L59.0607 14.1914C59.3297 13.8664 59.5709 13.5191 59.7818 13.1531C59.867 12.9738 59.9124 12.7778 59.9146 12.5789C59.9171 12.3907 59.8569 12.2071 59.7438 12.0574C59.6142 11.8691 59.4304 11.7255 59.2173 11.6459C58.7861 11.5392 58.3421 11.4942 57.8985 11.512V11H64.5825V11.5167C64.1396 11.5258 63.7016 11.6116 63.2875 11.7703C62.7873 11.9856 62.3233 12.2778 61.9118 12.6364C61.268 13.2579 60.6777 13.9334 60.1471 14.6555L56.4089 19.4737Z" fill="white"/>
<path d="M86 11V11.5319C85.444 11.6065 84.918 11.8363 84.4784 12.1967C83.8975 12.8117 83.4515 13.5491 83.1707 14.3588L76.5849 31H76.0713L68.9957 14.1421C68.7901 13.5893 68.5338 13.0583 68.2301 12.5563C67.9985 12.2602 67.7061 12.0213 67.3742 11.8569C66.938 11.6661 66.4729 11.5561 66 11.5319V11H73.7175V11.5319C73.1215 11.5352 72.5359 11.6945 72.0152 11.9948C71.8911 12.096 71.7913 12.2256 71.7236 12.3734C71.656 12.5212 71.6223 12.6833 71.6253 12.8468C71.7058 13.6296 71.9234 14.3906 72.2672 15.0926L77.0699 26.5627L81.5254 15.2354C81.8623 14.5017 82.0838 13.717 82.1816 12.9109C82.1735 12.7556 82.1332 12.604 82.0634 12.4664C81.9937 12.3287 81.8962 12.2082 81.7775 12.113C81.3816 11.8016 80.9082 11.6136 80.4127 11.5713L80.175 11.527V11H86Z" fill="white"/>
<path d="M96 29.4785V30H88V29.4785H88.6635C88.9768 29.5079 89.2926 29.4612 89.5846 29.3423C89.8767 29.2233 90.1368 29.0355 90.3435 28.7943C90.5647 28.4928 90.6729 27.7751 90.6729 26.6364V14.3636C90.7112 13.7201 90.6509 13.0744 90.4941 12.4498C90.3777 12.1901 90.1788 11.9778 89.9294 11.8469C89.5423 11.6277 89.1066 11.5124 88.6635 11.512H88V11H96V11.5167H95.3224C95.0116 11.4879 94.6986 11.5344 94.409 11.6526C94.1194 11.7707 93.8615 11.957 93.6565 12.1962C93.4259 12.4928 93.3129 13.2105 93.3129 14.3541V26.6364C93.2739 27.2799 93.3343 27.9257 93.4918 28.5502C93.6085 28.8145 93.8136 29.0281 94.0706 29.1531C94.4518 29.3744 94.8834 29.4899 95.3224 29.488L96 29.4785Z" fill="white"/>
<path d="M20 0C16.0444 0 12.1776 1.17298 8.8886 3.37061C5.59962 5.56823 3.03617 8.69181 1.52242 12.3463C0.00866569 16.0009 -0.387401 20.0222 0.384303 23.9018C1.15601 27.7814 3.06082 31.3451 5.85787 34.1421C8.65492 36.9392 12.2186 38.844 16.0982 39.6157C19.9778 40.3874 23.9992 39.9913 27.6537 38.4776C31.3082 36.9638 34.4318 34.4004 36.6294 31.1114C38.827 27.8224 40 23.9556 40 20C40 14.6957 37.8929 9.60859 34.1421 5.85786C30.3914 2.10714 25.3043 0 20 0M26.0996 31.1261L19.9807 35.1667L13.4703 30.8651C14.3741 30.5655 14.5191 30 14.4901 29.0768V24.0744C14.8574 23.9633 15.2344 23.8618 15.6114 23.7748L15.8192 23.7313C16.1914 23.6491 16.5684 23.5766 16.9454 23.5138V31.218L19.9807 33.2431L23.016 31.218V23.5186L24.1421 23.7216L25.4712 24.0793V29.0768C25.4471 29.8453 25.5437 30.3625 26.0947 30.6911C26.2192 30.7651 26.3523 30.8235 26.4911 30.8651L26.0996 31.1261ZM28.8449 29.3185C30.6477 28.0377 30.841 26.6892 29.7438 25.4519C28.5694 24.1083 26.9164 23.3688 25.0363 22.8999L24.3596 22.7163L24.1228 22.668L23.0305 22.4698C22.4456 22.378 21.8511 22.3006 21.247 22.2233H21.2083V30.2368L19.9807 31.0633L18.753 30.2368V22.262C15.3697 22.6776 12.1846 23.2624 10.261 25.4616C9.16385 26.7134 9.35718 28.057 11.16 29.3282C6.12857 26.0126 9.07202 22.3296 13.5331 20.8893C12.9151 20.6815 12.318 20.4161 11.7496 20.0967C7.33205 17.5979 7.27405 13.2383 11.363 10.5317L12.233 9.96133L13.9246 8.84002L15.7757 7.61721L18.0232 9.10585C17.7202 9.17959 17.449 9.34909 17.2499 9.58917C17.0308 9.97624 16.9442 10.4243 17.0034 10.8651V18.0667C16.6361 18.0135 16.2591 17.9459 15.8772 17.8637L15.6694 17.8154C15.2898 17.727 14.9154 17.6172 14.5481 17.4867V11.4065L14.2194 11.624L13.9246 11.8173L13.3495 12.1943C10.8023 13.8666 10.6815 16.4814 13.0498 17.883C14.1904 18.5645 15.7371 18.9028 17.4674 19.1348L18.753 19.333V8.10536C18.7869 7.18221 18.6419 6.61672 17.7332 6.31706L19.9807 4.83325L22.233 6.31706C21.3291 6.61672 21.1842 7.18221 21.2132 8.10536V19.333L22.5278 19.1542C24.2581 18.9222 25.8096 18.5839 26.9454 17.9072C29.3233 16.4911 29.2025 13.8763 26.6747 12.204L26.0996 11.8366L25.8047 11.6433L25.4761 11.4258V17.5109C25.1088 17.6414 24.7344 17.7511 24.3548 17.8395L24.1663 17.883C23.7844 17.97 23.4074 18.0329 23.0401 18.0909V10.9183C23.0996 10.4759 23.0131 10.0262 22.7936 9.6375C22.5961 9.39077 22.3253 9.21308 22.0203 9.13001L24.2678 7.6462L26.0996 8.86902L27.7912 9.9855L28.6612 10.5607C32.7501 13.2673 32.6921 17.6269 28.2745 20.1257C27.7265 20.4322 27.1523 20.6894 26.5587 20.8941C30.9618 22.3441 33.8521 26.0126 28.8449 29.3233" fill="#FBB33D"/>
</svg>
