<svg width="16" height="16" viewBox="0 0 16 16" fill="none" xmlns="http://www.w3.org/2000/svg">
<path fill-rule="evenodd" clip-rule="evenodd" d="M15.1222 5.99724C15.4235 7.41618 15.7108 8.83788 15.9841 10.2623C16.0832 10.7792 15.7101 11.0862 15.1402 10.9786C14.6159 10.8795 14.0932 10.7717 13.5707 10.6639C13.3114 10.6105 13.0521 10.557 12.7927 10.5046C12.2154 10.3857 11.6418 10.2706 11.066 10.16C10.789 10.1066 10.5195 9.98999 10.5015 9.69808C10.488 9.48065 10.6028 9.23463 10.7184 9.0345C10.7786 8.93098 10.8783 8.85095 10.9954 8.75698C11.0536 8.71026 11.1161 8.6601 11.1801 8.60189C11.0355 8.46133 10.8957 8.32648 10.7596 8.19513C10.4768 7.92224 10.2097 7.66447 9.94668 7.40189C8.45022 5.9042 6.95427 4.406 5.45881 2.90731C4.84321 2.28962 4.84696 1.87056 5.47082 1.2446C5.51797 1.19723 5.56509 1.14985 5.61221 1.10249C5.84795 0.865505 6.08352 0.628698 6.32065 0.392934C6.85067 -0.133715 7.34014 -0.13221 7.87692 0.404972C9.67367 2.20511 11.4699 4.00575 13.2657 5.80689C13.3369 5.87827 13.4024 5.95413 13.5104 6.07907C13.5492 6.124 13.5935 6.17528 13.6455 6.23498C13.6952 6.16659 13.7395 6.1 13.7818 6.03625C13.8681 5.90644 13.9465 5.78841 14.0472 5.69103C14.4653 5.28175 15.0006 5.4262 15.1222 5.99724ZM4.95505 7.48329C5.03447 7.56807 5.10017 7.6382 5.16848 7.70608L10.5354 13.0726C11.1539 13.6928 11.1546 14.1182 10.5391 14.7362C10.2634 15.0138 9.98817 15.2894 9.71345 15.5631C9.13247 16.1426 8.6821 16.1456 8.10863 15.5721C6.31066 13.7765 4.51495 11.9766 2.72148 10.1725C2.6577 10.1086 2.60815 10.0325 2.53659 9.92254C2.50035 9.86687 2.45846 9.80252 2.40623 9.7267C2.33311 9.81887 2.27105 9.90232 2.2146 9.97824C2.10529 10.1252 2.01698 10.244 1.91007 10.3431C1.528 10.6949 1.00408 10.5543 0.894489 10.0492C0.582734 8.60789 0.289492 7.16309 0.0147678 5.71477C-0.0820614 5.20586 0.307508 4.91119 0.883228 5.02394C1.48726 5.14222 2.09063 5.26518 2.694 5.38813C2.99562 5.4496 3.29724 5.51107 3.59895 5.57195C4.05132 5.66416 4.50419 5.75411 4.95756 5.84181C5.23604 5.89669 5.49199 6.03125 5.50776 6.32216C5.51601 6.52964 5.40643 6.76568 5.29083 6.9521C5.22134 7.06376 5.11244 7.15103 4.99903 7.2419C4.94829 7.28256 4.89664 7.32394 4.84722 7.36856C4.88635 7.40996 4.92189 7.4479 4.95505 7.48329Z" fill="#222121"/>
</svg>
