<svg width="16" height="18" viewBox="0 0 16 18" fill="none" xmlns="http://www.w3.org/2000/svg">
<path d="M13.8333 0.666992H2.16667C1.72464 0.666992 1.30072 0.842587 0.988155 1.15515C0.675595 1.46771 0.5 1.89163 0.5 2.33366V13.167C0.5 13.609 0.675595 14.0329 0.988155 14.3455C1.30072 14.6581 1.72464 14.8337 2.16667 14.8337H5.5L8 17.3337L10.5 14.8337H13.8333C14.2754 14.8337 14.6993 14.6581 15.0118 14.3455C15.3244 14.0329 15.5 13.609 15.5 13.167V2.33366C15.5 1.89163 15.3244 1.46771 15.0118 1.15515C14.6993 0.842587 14.2754 0.666992 13.8333 0.666992ZM8 3.16699C9.43917 3.16699 10.5 4.22699 10.5 5.66699C10.5 7.10699 9.43917 8.16699 8 8.16699C6.56167 8.16699 5.5 7.10699 5.5 5.66699C5.5 4.22699 6.56167 3.16699 8 3.16699ZM3.98083 12.3337C4.44583 10.8978 6.06083 9.83366 8 9.83366C9.93917 9.83366 11.555 10.8978 12.0192 12.3337H3.98083Z" fill="white"/>
</svg>
