<svg width="52" height="52" viewBox="0 0 52 52" fill="none" xmlns="http://www.w3.org/2000/svg">
<rect width="52" height="52" rx="26" fill="#D7A724"/>
<path d="M29.1584 36.4051V40.1039L25.9535 42L22.8407 40.1039V36.4051L25.9517 38.3013L29.1584 36.4051ZM12 23.6034L15.111 25.4995V31.8532L20.484 35.0772V38.776L12.0036 33.7502L12.0009 23.6034H12ZM39.9026 23.6034V33.7502L31.3274 38.776V35.0772L36.6977 31.8532V25.4995L39.9026 23.6034ZM31.3247 18.5777L34.5332 20.4765V24.1752L29.1602 27.3993V33.8455L26.0492 35.7416L22.9381 33.8455V27.3966L17.3748 24.1725V20.4765L20.5796 18.5804L25.9526 21.8044L31.3247 18.5786V18.5777ZM17.3748 26.8275L20.4858 28.7236V32.4223L17.3748 30.5262V26.8275ZM34.5332 26.8275V30.5262L31.4222 32.4223V28.7236L34.5332 26.8275ZM15.1146 15.3537L18.3194 17.2498L15.1146 19.1459V22.8446L12.0036 20.9485V17.2498L15.1146 15.3537ZM36.7951 15.3537L40 17.2498V20.9485L36.7951 22.8446V19.1459L33.6841 17.2498L36.7951 15.3537ZM25.9544 15.3537L29.1593 17.2498L25.9544 19.1459L22.8416 17.2498L25.9544 15.3537ZM25.9544 9L34.5332 14.0266L31.4222 15.9228L26.0492 12.6987L20.5823 15.9228L17.4713 14.0266L25.9544 9Z" fill="white"/>
</svg>
