<svg width="40" height="40" viewBox="0 0 40 40" fill="none" xmlns="http://www.w3.org/2000/svg">
<path d="M20 0C16.0444 0 12.1776 1.17298 8.8886 3.37061C5.59962 5.56823 3.03617 8.69181 1.52242 12.3463C0.00866569 16.0009 -0.387401 20.0222 0.384303 23.9018C1.15601 27.7814 3.06082 31.3451 5.85787 34.1421C8.65492 36.9392 12.2186 38.844 16.0982 39.6157C19.9778 40.3874 23.9992 39.9913 27.6537 38.4776C31.3082 36.9638 34.4318 34.4004 36.6294 31.1114C38.827 27.8224 40 23.9556 40 20C40 14.6957 37.8929 9.60859 34.1421 5.85786C30.3914 2.10714 25.3043 0 20 0M26.0996 31.1261L19.9807 35.1667L13.4703 30.8651C14.3741 30.5655 14.5191 30 14.4901 29.0768V24.0744C14.8574 23.9633 15.2344 23.8618 15.6114 23.7748L15.8192 23.7313C16.1914 23.6491 16.5684 23.5766 16.9454 23.5138V31.218L19.9807 33.2431L23.016 31.218V23.5186L24.1421 23.7216L25.4712 24.0793V29.0768C25.4471 29.8453 25.5437 30.3625 26.0947 30.6911C26.2192 30.7651 26.3523 30.8235 26.4911 30.8651L26.0996 31.1261ZM28.8449 29.3185C30.6477 28.0377 30.841 26.6892 29.7438 25.4519C28.5694 24.1083 26.9164 23.3688 25.0363 22.8999L24.3596 22.7163L24.1228 22.668L23.0305 22.4698C22.4456 22.378 21.8511 22.3006 21.247 22.2233H21.2083V30.2368L19.9807 31.0633L18.753 30.2368V22.262C15.3697 22.6776 12.1846 23.2624 10.261 25.4616C9.16385 26.7134 9.35718 28.057 11.16 29.3282C6.12857 26.0126 9.07202 22.3296 13.5331 20.8893C12.9151 20.6815 12.318 20.4161 11.7496 20.0967C7.33205 17.5979 7.27405 13.2383 11.363 10.5317L12.233 9.96133L13.9246 8.84002L15.7757 7.61721L18.0232 9.10585C17.7202 9.17959 17.449 9.34909 17.2499 9.58917C17.0308 9.97624 16.9442 10.4243 17.0034 10.8651V18.0667C16.6361 18.0135 16.2591 17.9459 15.8772 17.8637L15.6694 17.8154C15.2898 17.727 14.9154 17.6172 14.5481 17.4867V11.4065L14.2194 11.624L13.9246 11.8173L13.3495 12.1943C10.8023 13.8666 10.6815 16.4814 13.0498 17.883C14.1904 18.5645 15.7371 18.9028 17.4674 19.1348L18.753 19.333V8.10536C18.7869 7.18221 18.6419 6.61672 17.7332 6.31706L19.9807 4.83325L22.233 6.31706C21.3291 6.61672 21.1842 7.18221 21.2132 8.10536V19.333L22.5278 19.1542C24.2581 18.9222 25.8096 18.5839 26.9454 17.9072C29.3233 16.4911 29.2025 13.8763 26.6747 12.204L26.0996 11.8366L25.8047 11.6433L25.4761 11.4258V17.5109C25.1088 17.6414 24.7344 17.7511 24.3548 17.8395L24.1663 17.883C23.7844 17.97 23.4074 18.0329 23.0401 18.0909V10.9183C23.0996 10.4759 23.0131 10.0262 22.7936 9.6375C22.5961 9.39077 22.3253 9.21308 22.0203 9.13001L24.2678 7.6462L26.0996 8.86902L27.7912 9.9855L28.6612 10.5607C32.7501 13.2673 32.6921 17.6269 28.2745 20.1257C27.7265 20.4322 27.1523 20.6894 26.5587 20.8941C30.9618 22.3441 33.8521 26.0126 28.8449 29.3233" fill="#FBB33D"/>
</svg>
